<?xml version="1.0" encoding="UTF-8" standalone="no"?>
<!DOCTYPE svg PUBLIC "-//W3C//DTD SVG 1.1//EN" "http://www.w3.org/Graphics/SVG/1.1/DTD/svg11.dtd">
<svg width="100%" height="100%" viewBox="0 0 3542 1417" version="1.1" xmlns="http://www.w3.org/2000/svg" xmlns:xlink="http://www.w3.org/1999/xlink" xml:space="preserve" xmlns:serif="http://www.serif.com/" style="fill-rule:evenodd;clip-rule:evenodd;stroke-linejoin:round;stroke-miterlimit:2;"><g><path d="M2039.04,575c0,34.495 -28.005,62.5 -62.5,62.5c-34.494,0 -62.5,-28.005 -62.5,-62.5c0,34.495 -28.005,62.5 -62.5,62.5c-34.494,0 -62.5,-28.005 -62.5,-62.5l-301.543,0c0,34.495 -28.005,62.5 -62.5,62.5c-34.495,0 -62.5,-28.005 -62.5,-62.5l-29.167,0c-3.315,0 -6.494,-1.317 -8.839,-3.661c-2.344,-2.344 -3.661,-5.524 -3.661,-8.839c0,-45.984 0,-204.761 0,-237.193c0,-3.686 1.627,-7.184 4.446,-9.559c18.123,-15.271 86.234,-72.665 102.471,-86.347c2.254,-1.899 5.107,-2.941 8.054,-2.941c20.769,-0 106.726,-0 139.201,-0c6.903,-0 12.5,5.596 12.5,12.5c-0,47.08 -0,211.04 -0,211.04l479.162,0c3.315,0 6.494,1.317 8.839,3.661c2.344,2.344 3.661,5.524 3.661,8.839c-0,23.95 -0,76.05 -0,100c-0,3.315 -1.317,6.495 -3.661,8.839c-2.345,2.344 -5.524,3.661 -8.839,3.661c-11.776,0 -27.624,0 -27.624,0Zm-614.043,-20.833c11.498,-0 20.833,9.335 20.833,20.833c0,11.498 -9.335,20.833 -20.833,20.833c-11.498,0 -20.833,-9.335 -20.833,-20.833c-0,-11.498 9.335,-20.833 20.833,-20.833Zm426.543,-0c11.498,-0 20.834,9.335 20.834,20.833c-0,11.498 -9.336,20.833 -20.834,20.833c-11.498,0 -20.833,-9.335 -20.833,-20.833c-0,-11.498 9.335,-20.833 20.833,-20.833Zm125,-0c11.498,-0 20.834,9.335 20.834,20.833c-0,11.498 -9.336,20.833 -20.834,20.833c-11.498,0 -20.833,-9.335 -20.833,-20.833c-0,-11.498 9.335,-20.833 20.833,-20.833Zm62.5,-20.834l-15.931,0c-11.449,-12.784 -28.076,-20.833 -46.569,-20.833c-18.492,-0 -35.12,8.049 -46.569,20.833l-31.862,0c-11.449,-12.784 -28.076,-20.833 -46.569,-20.833c-18.492,-0 -35.12,8.049 -46.569,20.833l-333.405,0c-11.449,-12.784 -28.076,-20.833 -46.569,-20.833c-18.493,-0 -35.12,8.049 -46.569,20.833l-17.474,0l-0,-43.21l678.086,0l0,43.21Zm-678.086,-101.981l-0,18.648l186.424,0l0,-18.648l-186.424,0Zm733.872,-416.229c0,-3.315 -1.316,-6.494 -3.661,-8.838c-2.344,-2.345 -5.523,-3.662 -8.839,-3.662c-68.154,0 -394.345,0 -462.499,0c-3.316,0 -6.495,1.317 -8.839,3.662c-2.345,2.344 -3.662,5.523 -3.662,8.838c0,62.565 0,341.165 0,403.729c0,3.315 1.317,6.495 3.662,8.839c2.344,2.344 5.523,3.661 8.839,3.661l462.499,0c6.904,0 12.5,-5.596 12.5,-12.5l0,-68.961l-40.123,-0l0,41.338l-407.253,-0l-0,-348.482l407.253,-0l0,101.324l40.123,0l0,-128.948Zm-733.872,376.106l186.424,-0l0,-124.646l-101.49,0l-84.934,71.57l-0,53.076Zm794.695,-1.215l-0,-40.123l-38.934,-0l0,40.123l38.934,-0Zm62.5,-0l-0,-40.123l-38.934,-0l0,40.123l38.934,-0Zm-550.946,-40.123l40.123,-0l0,-268.101l-40.123,0l0,268.101Zm82.128,-0l40.123,-0l-0,-268.101l-40.123,0l-0,268.101Zm82.127,-0l40.123,-0l0,-268.101l-40.123,0l0,268.101Zm82.128,-0l40.123,-0l-0,-268.101l-40.123,0l-0,268.101Zm285.096,-42.518l-0,-40.123l-38.934,-0l0,40.123l38.934,0Zm-62.5,0l-0,-40.123l-163.934,-0l0,40.123l163.934,0Zm62.5,-83.333l-0,-40.123l-184.767,-0l-0,40.123l184.767,0Zm-202.969,-78.316l40.123,-0l0,-63.934l-40.123,0l0,63.934Z" style="fill:#a6adba;"/><rect x="-0" y="691.667" width="1191.67" height="75" style="fill:#a6adba;"/><rect x="2350" y="691.667" width="1191.67" height="75" style="fill:#a6adba;"/><g><text x="554.933px" y="1410.67px" style="font-family:'NotoSans-Black', 'Noto Sans', sans-serif;font-weight:900;font-size:600px;fill:#a6adba;">r<tspan x="812.333px 1170.53px 1548.53px 1800.53px 2147.33px 2489.93px 2660.93px " y="1410.67px 1410.67px 1410.67px 1410.67px 1410.67px 1410.67px 1410.67px ">outevis</tspan></text></g></g></svg>